<svg id="Capa_1" enable-background="new 0 0 511.877 511.877" height="512" viewBox="0 0 511.877 511.877" width="512" xmlns="http://www.w3.org/2000/svg"><g><g><g><path d="" style="fill:none;stroke:rgb(0,0,0);stroke-width:15;stroke-linecap:round;stroke-linejoin:round;stroke-miterlimit:10"/></g></g><g><path d="m212.518 232.575h86.842c11.352 0 20.586-9.235 20.586-20.586v-9.841c0-22.696-11.884-42.655-29.745-54.023l3.953-7.333c1.966-3.646.604-8.195-3.042-10.161s-8.196-.605-10.161 3.042l-4.277 7.934c-6.508-2.235-13.478-3.466-20.735-3.466s-14.227 1.231-20.735 3.466l-4.277-7.934c-1.966-3.646-6.515-5.008-10.161-3.042-3.646 1.965-5.008 6.515-3.042 10.161l3.953 7.333c-17.862 11.368-29.745 31.328-29.745 54.023v9.841c-.001 11.351 9.234 20.586 20.586 20.586zm-5.587-30.427c0-27.022 21.984-49.007 49.007-49.007s49.007 21.984 49.007 49.007v9.841c0 3.081-2.506 5.586-5.586 5.586h-86.842c-3.081 0-5.586-2.506-5.586-5.586z"/><path d="m234.269 202.78c4.142 0 7.5-3.358 7.5-7.5v-7.205c0-4.142-3.358-7.5-7.5-7.5s-7.5 3.358-7.5 7.5v7.205c0 4.142 3.358 7.5 7.5 7.5z"/><path d="m277.608 202.78c4.142 0 7.5-3.358 7.5-7.5v-7.205c0-4.142-3.358-7.5-7.5-7.5s-7.5 3.358-7.5 7.5v7.205c0 4.142 3.358 7.5 7.5 7.5z"/><path d="m206.879 331.231v29.721c0 11.685 9.506 21.19 21.19 21.19s21.19-9.506 21.19-21.19v-29.271h13.356v29.271c0 11.685 9.506 21.19 21.19 21.19s21.19-9.506 21.19-21.19v-29.721c8.536-1.873 14.948-9.483 14.948-18.573v-2.219c0-4.142-3.358-7.5-7.5-7.5s-7.5 3.358-7.5 7.5v2.219c0 2.219-1.805 4.024-4.024 4.024h-3.424-83.118-3.424c-2.219 0-4.024-1.805-4.024-4.024v-52.697c0-2.219 1.805-4.024 4.024-4.024h89.967c2.219 0 4.024 1.805 4.024 4.024v15.478c0 4.142 3.358 7.5 7.5 7.5s7.5-3.358 7.5-7.5v-15.478c0-10.49-8.534-19.024-19.024-19.024h-89.967c-10.49 0-19.024 8.534-19.024 19.024v52.697c.002 9.09 6.414 16.7 14.95 18.573zm70.738.451h12.381v29.271c0 3.414-2.777 6.19-6.19 6.19s-6.19-2.777-6.19-6.19v-29.271zm-55.738 0h12.381v29.271c0 3.414-2.777 6.19-6.19 6.19s-6.19-2.777-6.19-6.19v-29.271z"/><path d="m330.041 290.236c0 11.685 9.506 21.19 21.19 21.19s21.19-9.506 21.19-21.19v-28.106c0-11.685-9.506-21.19-21.19-21.19s-21.19 9.506-21.19 21.19zm15-28.106c0-3.414 2.777-6.19 6.19-6.19s6.19 2.777 6.19 6.19v28.106c0 3.414-2.777 6.19-6.19 6.19s-6.19-2.777-6.19-6.19z"/><path d="m160.646 311.427c11.685 0 21.19-9.506 21.19-21.19v-28.107c0-11.685-9.506-21.19-21.19-21.19s-21.19 9.506-21.19 21.19v28.106c-.001 11.685 9.505 21.191 21.19 21.191zm-6.191-49.297c0-3.414 2.777-6.19 6.19-6.19s6.19 2.777 6.19 6.19v28.106c0 3.414-2.777 6.19-6.19 6.19s-6.19-2.777-6.19-6.19z"/><path d="m374.959 0h-172.854c-4.142 0-7.5 3.358-7.5 7.5s3.358 7.5 7.5 7.5h172.854c9.069 0 16.448 7.378 16.448 16.448v33.99h-270.937v-33.99c0-9.07 7.379-16.448 16.448-16.448h30.521c4.142 0 7.5-3.358 7.5-7.5s-3.358-7.5-7.5-7.5h-30.521c-17.341 0-31.448 14.107-31.448 31.448v448.98c0 17.341 14.107 31.448 31.448 31.448h238.041c17.341 0 31.448-14.107 31.448-31.448v-448.98c0-17.341-14.107-31.448-31.448-31.448zm16.448 480.429c0 9.07-7.379 16.448-16.448 16.448h-238.041c-9.069 0-16.448-7.378-16.448-16.448v-33.99h270.938v33.99zm0-48.991h-270.937v-351h270.938v351z"/><path d="m243.85 479.158h24.178c4.142 0 7.5-3.358 7.5-7.5s-3.358-7.5-7.5-7.5h-24.178c-4.142 0-7.5 3.358-7.5 7.5s3.358 7.5 7.5 7.5z"/><circle cx="224.324" cy="40.219" r="9.945"/><path d="m297.498 47.719c4.142 0 7.5-3.358 7.5-7.5s-3.358-7.5-7.5-7.5h-41.559c-4.142 0-7.5 3.358-7.5 7.5s3.358 7.5 7.5 7.5z"/><path d="m327.147 119.706c4.142 0 7.5-3.358 7.5-7.5v-4.583c0-4.142-3.358-7.5-7.5-7.5s-7.5 3.358-7.5 7.5v4.583c0 4.142 3.358 7.5 7.5 7.5z"/><path d="m350.165 119.706c4.142 0 7.5-3.358 7.5-7.5v-9.167c0-4.142-3.358-7.5-7.5-7.5s-7.5 3.358-7.5 7.5v9.167c0 4.142 3.358 7.5 7.5 7.5z"/><path d="m373.183 119.706c4.142 0 7.5-3.358 7.5-7.5v-13.75c0-4.142-3.358-7.5-7.5-7.5s-7.5 3.358-7.5 7.5v13.75c0 4.142 3.358 7.5 7.5 7.5z"/></g></g></svg>