<svg id="Layer_1_1_" enable-background="new 0 0 64 64" height="512" viewBox="0 0 64 64" width="512" xmlns="http://www.w3.org/2000/svg"><path d="m22.184 25h-9.184c-.265 0-.52.105-.707.293l-3.707 3.707h-.77c-.414-1.161-1.514-2-2.816-2-1.654 0-3 1.346-3 3s1.346 3 3 3c1.302 0 2.402-.839 2.816-2h1.184c.265 0 .52-.105.707-.293l3.707-3.707h8.77c.414 1.161 1.514 2 2.816 2 .76 0 1.446-.293 1.975-.76l4.075 2.267c-.027.161-.05.324-.05.493 0 1.654 1.346 3 3 3s3-1.346 3-3c0-.169-.023-.332-.05-.493l4.075-2.267c.529.467 1.215.76 1.975.76 1.654 0 3-1.346 3-3 0-1.302-.839-2.402-2-2.816v-4.369c1.161-.414 2-1.514 2-2.816 0-1.654-1.346-3-3-3-.76 0-1.446.293-1.975.76l-4.075-2.267c.027-.16.05-.323.05-.492 0-1.654-1.346-3-3-3s-3 1.346-3 3c0 .169.023.332.05.493l-4.075 2.267c-.529-.467-1.215-.76-1.975-.76-1.302 0-2.402.839-2.816 2h-8.77l-3.707-3.707c-.187-.188-.442-.293-.707-.293h-1.184c-.414-1.161-1.514-2-2.816-2-1.654 0-3 1.346-3 3s1.346 3 3 3c1.302 0 2.402-.839 2.816-2h.77l3.707 3.707c.187.188.442.293.707.293h9.184c.302.847.969 1.514 1.816 1.816v1.184h-16.184c-.414-1.161-1.514-2-2.816-2-1.654 0-3 1.346-3 3s1.346 3 3 3c1.302 0 2.402-.839 2.816-2h16.184v1.184c-.847.302-1.514.969-1.816 1.816zm-17.184 6c-.551 0-1-.449-1-1s.449-1 1-1 1 .449 1 1-.449 1-1 1zm0-18c-.551 0-1-.449-1-1s.449-1 1-1 1 .449 1 1-.449 1-1 1zm0 9c-.551 0-1-.449-1-1s.449-1 1-1 1 .449 1 1-.449 1-1 1zm20 5c-.551 0-1-.449-1-1s.449-1 1-1 1 .449 1 1-.449 1-1 1zm1.975-8.76 4.075 2.267c-.027.161-.05.324-.05.493s.023.332.05.493l-4.075 2.267c-.284-.25-.612-.446-.975-.576v-4.369c.363-.129.692-.324.975-.575zm14.05 5.52-4.075-2.267c.027-.161.05-.324.05-.493s-.023-.332-.05-.493l4.075-2.267c.284.25.612.446.975.576v4.369c-.363.129-.692.324-.975.575zm-13.075 1.747 4.075-2.267c.284.25.612.446.975.576v4.369c-.363.13-.692.325-.975.576l-4.075-2.267c.027-.162.05-.325.05-.494s-.023-.332-.05-.493zm6.05-5.507c.551 0 1 .449 1 1s-.449 1-1 1-1-.449-1-1 .449-1 1-1zm1 3.816c.363-.13.692-.325.975-.576l4.075 2.267c-.027.161-.05.324-.05.493s.023.332.05.493l-4.075 2.267c-.284-.25-.612-.446-.975-.576zm5.05-7.323-4.075 2.267c-.284-.25-.612-.446-.975-.576v-4.369c.363-.13.692-.325.975-.576l4.075 2.267c-.027.162-.05.325-.05.494s.023.332.05.493zm-7.05 1.691c-.363.13-.692.325-.975.576l-4.075-2.267c.027-.161.05-.324.05-.493s-.023-.332-.05-.493l4.075-2.267c.284.25.612.446.975.576zm1 13.816c-.551 0-1-.449-1-1s.449-1 1-1 1 .449 1 1-.449 1-1 1zm9-5c-.551 0-1-.449-1-1s.449-1 1-1 1 .449 1 1-.449 1-1 1zm0-12c.551 0 1 .449 1 1s-.449 1-1 1-1-.449-1-1 .449-1 1-1zm-9-5c.551 0 1 .449 1 1s-.449 1-1 1-1-.449-1-1 .449-1 1-1zm-9 5c.551 0 1 .449 1 1s-.449 1-1 1-1-.449-1-1 .449-1 1-1z"/><path d="m23 62h16c.552 0 1-.448 1-1v-7h13c.552 0 1-.448 1-1v-12h7c.318 0 .617-.151.806-.408s.244-.587.149-.891l-4.986-15.954c-.2-6.068-2.762-11.668-7.234-15.795-4.524-4.174-10.419-6.27-16.586-5.912-7.098.415-13.674 4.31-17.591 10.42l1.684 1.079c3.573-5.573 9.563-9.125 16.025-9.503 5.621-.331 10.992 1.584 15.111 5.386 4.133 3.813 6.476 9.008 6.598 14.627.004.173.055.336.141.477l4.523 14.474h-6.64c-.552 0-1 .448-1 1v4h-3c-1.654 0-3-1.346-3-3h-2c0 2.757 2.243 5 5 5h3v6h-13c-.552 0-1 .448-1 1v7h-14v-.967c0-8.091-2.432-16.364-7.034-23.925-1.018-1.672-1.787-3.477-2.287-5.364l-1.934.512c.549 2.073 1.394 4.055 2.512 5.892 4.411 7.248 6.743 15.161 6.743 22.885v1.967c0 .552.448 1 1 1z"/></svg>