<?xml version="1.0"?>
<svg xmlns="http://www.w3.org/2000/svg" viewBox="0 0 512 512" width="512px" height="512px"><g><g id="outline"><circle cx="248" cy="200" r="8" data-original="#000000" class="active-path" fill="#000000"/><circle cx="224" cy="200" r="8" data-original="#000000" class="active-path" fill="#000000"/><circle cx="200" cy="200" r="8" data-original="#000000" class="active-path" fill="#000000"/><path d="M384,416a32,32,0,1,0,32-32A32.036,32.036,0,0,0,384,416Zm48,0a16,16,0,1,1-16-16A16.019,16.019,0,0,1,432,416Z" data-original="#000000" class="active-path" fill="#000000"/><path d="M480,40a8,8,0,0,0-8-8H440a8,8,0,0,0-8,8v96H416V88a8,8,0,0,0-8-8H376a8,8,0,0,0-8,8v48H352V16H336V144a8,8,0,0,0,8,8h72v56a24.028,24.028,0,0,1-24,24H344V176a8,8,0,0,0-8-8H176a8,8,0,0,0-8,8v56H112a24.028,24.028,0,0,1-24-24V143.48A64.543,64.543,0,0,0,139.328,104h9.359l5.656,5.657a8,8,0,0,0,11.314,0L179.313,96h17.374l13.656,13.657a8,8,0,0,0,11.314,0L232,99.313l10.343,10.344a8,8,0,0,0,11.314,0l24-24a8,8,0,0,0,0-11.314l-24-24A8,8,0,0,0,248,48H135.427A64,64,0,1,0,72,143.482V208a40.045,40.045,0,0,0,40,40h56v32H120a40.045,40.045,0,0,0-40,40v32.138C59.74,352.8,16,356.492,16,376v96c0,22.843,59.977,24,72,24s72-1.157,72-24V376c0-19.508-43.74-23.2-64-23.862V320a24.028,24.028,0,0,1,24-24h48v40a8,8,0,0,0,8,8h5.029a24.971,24.971,0,0,0,37.6,32.687L251.314,344H336a8,8,0,0,0,8-8V296h40a24.028,24.028,0,0,1,24,24v16h-8a8,8,0,0,0-8,8v12.673a64.382,64.382,0,0,0-15.365,8.887l-10.989-6.345a8,8,0,0,0-10.927,2.929l-16,27.712a8,8,0,0,0,2.927,10.928l10.977,6.338a63.569,63.569,0,0,0,0,17.756l-10.977,6.338a8,8,0,0,0-2.927,10.928l16,27.712a8,8,0,0,0,10.927,2.929l10.989-6.345A64.382,64.382,0,0,0,392,475.327V488a8,8,0,0,0,8,8h32a8,8,0,0,0,8-8V475.327a64.382,64.382,0,0,0,15.365-8.887l10.989,6.345a8,8,0,0,0,10.927-2.929l16-27.712a8,8,0,0,0-2.927-10.928l-10.977-6.338a63.569,63.569,0,0,0,0-17.756l10.977-6.338a8,8,0,0,0,2.927-10.928l-16-27.712a8,8,0,0,0-10.927-2.929l-10.989,6.345A64.382,64.382,0,0,0,440,356.673V344a8,8,0,0,0-8-8h-8V320a40.045,40.045,0,0,0-40-40H344V248h48a40.045,40.045,0,0,0,40-40V152h64V136H480ZM32,80a48,48,0,0,1,91.378-20.566A8,8,0,0,0,130.6,64H244.687l16,16L248,92.687,237.657,82.343a8,8,0,0,0-11.314,0L216,92.687,205.657,82.343A8,8,0,0,0,200,80H176a8,8,0,0,0-5.657,2.343L160,92.687l-2.343-2.344A8,8,0,0,0,152,88H133.668A8,8,0,0,0,126,93.717,48,48,0,0,1,32,80ZM144,406.65c-4.113,3.434-23.727,9.35-56,9.35s-51.887-5.916-56-9.35V392.373C50.662,399.483,79.985,400,88,400s37.338-.517,56-7.627Zm0,32c-4.113,3.434-23.727,9.35-56,9.35s-51.887-5.916-56-9.35V424.373C50.662,431.483,79.985,432,88,432s37.338-.517,56-7.627ZM88,480c-32.238,0-51.858-5.9-56-9.341V456.373C50.662,463.483,79.985,464,88,464s37.338-.517,56-7.627v14.286C139.858,474.1,120.238,480,88,480Zm0-96c-28.338,0-46.925-4.562-53.821-8,6.9-3.438,25.483-8,53.821-8s46.925,4.562,53.821,8C134.925,379.438,116.338,384,88,384Zm341.717-14a48.177,48.177,0,0,1,19.248,11.132,8,8,0,0,0,9.5,1.116l8.963-5.176,8,13.858-8.953,5.169a8,8,0,0,0-3.785,8.774,47.848,47.848,0,0,1,0,22.256,8,8,0,0,0,3.785,8.774l8.953,5.169-8,13.858-8.963-5.176a8,8,0,0,0-9.5,1.116A48.177,48.177,0,0,1,429.717,462,8,8,0,0,0,424,469.668V480H408V469.668A8,8,0,0,0,402.283,462a48.177,48.177,0,0,1-19.248-11.132,8,8,0,0,0-9.5-1.116l-8.963,5.176-8-13.858,8.953-5.169a8,8,0,0,0,3.785-8.774,47.848,47.848,0,0,1,0-22.256,8,8,0,0,0-3.785-8.774l-8.953-5.169,8-13.858,8.963,5.176a8,8,0,0,0,9.5-1.116A48.177,48.177,0,0,1,402.283,370,8,8,0,0,0,408,362.332V352h16v10.332A8,8,0,0,0,429.717,370ZM328,184v32H184V184ZM207.313,365.372a8.97,8.97,0,1,1-12.685-12.685l29.7-29.7a48.375,48.375,0,0,0,12.686,12.686ZM264,328a32,32,0,1,1,32-32A32.036,32.036,0,0,1,264,328Zm64,0H299.739a47.995,47.995,0,1,0-82.377-20.676L196.686,328H184V232H328Zm56-192V96h16v40Zm64,0V48h16v88Z" data-original="#000000" class="active-path" fill="#000000"/><path d="M264,272a24,24,0,1,0,24,24A24.028,24.028,0,0,0,264,272Zm0,32a8,8,0,1,1,8-8A8.009,8.009,0,0,1,264,304Z" data-original="#000000" class="active-path" fill="#000000"/><path d="M88,80a24,24,0,1,0-24,24A24.028,24.028,0,0,0,88,80ZM64,88a8,8,0,1,1,8-8A8.009,8.009,0,0,1,64,88Z" data-original="#000000" class="active-path" fill="#000000"/></g></g> </svg>
